<svg height="128" width="128" xmlns="http://www.w3.org/2000/svg" xmlns:xlink="http://www.w3.org/1999/xlink"><linearGradient gradientUnits="userSpaceOnUse" x1="86.88201248139" x2="95.70883902098" y1="93.75643919115" y2="102.58326471875"><stop offset="0" stop-color="#fcfcfc"/><stop offset=".52275378" stop-color="#f8f8f8"/><stop offset=".77457333" stop-color="#f0efef"/><stop offset=".90122044" stop-color="#e3e1e1"/><stop offset="1" stop-color="#cecbcb"/></linearGradient><radialGradient id="a" cx="90.750004025" cy="110.25296681175" gradientUnits="userSpaceOnUse" r="24.50127823847" xlink:href="#b"/><linearGradient id="b"><stop offset="0" stop-color="#fff"/><stop offset="1" stop-color="#fff" stop-opacity="0"/></linearGradient><clipPath id="c"><path d="m112 82.502986c0 4.465301-2.79749 6.409952-5.27972 8.093625-5.10854 3.46508-14.939114 3.32536-20.720284 3.40638-.081 5.781159.16586 15.504599-3.29922 20.613139-1.68367 2.48224-5.29051 5.38687-8.20078 5.38687 2.31803 0 4.74284-1.33476 7.58402-4.08481 9.14197-8.84873 17.36714-16.13535 25.673154-25.297529 1.91895-2.116745 4.24283-3.641881 4.24283-8.117675z"/></clipPath><filter id="d" color-interpolation-filters="sRGB"><feGaussianBlur stdDeviation=".43040059"/></filter><linearGradient id="e" gradientTransform="matrix(1.4094273 0 0 1.4111689 -46.598939 -46.228314)" gradientUnits="userSpaceOnUse" x1="82.15696" x2="94.220871" y1="90.381706" y2="102.18401"><stop offset="0" stop-color="#fcfcfc"/><stop offset=".52275378" stop-color="#f8f8f8"/><stop offset=".72337759" stop-color="#f0efef"/><stop offset=".89024991" stop-color="#e3e1e1"/><stop offset="1" stop-color="#cecbcb"/></linearGradient><clipPath id="f"><path d="m17.000001 8 .782827 110h57.5c1.675283 0 3.119418.18058 4.9-1.6 8.797935-8.79794 19.757642-19.851805 27.016212-27.175957 2.44056-2.462612 2.80096-4.47117 2.80096-6.724043v-74.5z"/></clipPath><radialGradient id="g" cx="64" cy="64.004021" fx="63.793392" fy="47.274845" gradientTransform="matrix(1.689423 -.08280186 .06907651 1.3515102 -50.111719 -17.641619)" gradientUnits="userSpaceOnUse" r="47.5" xlink:href="#b"/><filter id="h" color-interpolation-filters="sRGB" height="2.025501" width="1.957419" x="-.478709" y="-.512751"><feGaussianBlur stdDeviation="10.140743"/></filter><linearGradient id="i" gradientTransform="matrix(1.003095 0 0 .98228452 -1.76555 .690988)" gradientUnits="userSpaceOnUse" x1="72" x2="72" y1="0" y2="116.40091"><stop offset="0" stop-color="#eeecec"/><stop offset=".40000001" stop-color="#f4f4f4"/><stop offset="1" stop-color="#f6f5f5"/></linearGradient><filter id="j"><feGaussianBlur stdDeviation="2.028"/></filter><filter id="k" height="1.408259" width="1.329301" x="-.164651" y="-.20413"><feGaussianBlur stdDeviation="4.2234282"/></filter><filter id="l"><feGaussianBlur stdDeviation="1.8077645"/></filter><linearGradient id="m" gradientUnits="userSpaceOnUse" x1="53.238865" x2="53.238865" y1="12.753036" y2="86.356995"><stop offset="0" stop-color="#226e23"/><stop offset="1" stop-color="#63ab3a"/></linearGradient><path d="m13.333 5.3364v118.3304l49.8545-.0668c2.115554-.003 4.528919-1.77169 7-4.25.71234-.71442 1.440746-1.39395 2.15625-2.09375.415612-.40649.832187-.81443 1.25-1.21875 7.773958-7.40962 26.98341-25.122599 34.21875-33.099999.42065-.42064.81207-.8111 1.15625-1.1875 1.46444-1.49766 2.76158-2.8378 2.99375-5.8625l.0375-.73125-.0028-69.819851z" filter="url(#j)" opacity=".456067" transform="matrix(1.003095 0 0 .98228452 -1.765551 .690986)"/><path d="m13.09375 3.5a1.0280226 1.0280226 0 0 0 -.125.03125c-.884986.1872727-1.471857.9079209-1.46875 1.8125v118.3125a1.0280226 1.0280226 0 0 0 0 .0313c.01849 1.02971.782949 1.79389 1.8125 1.8125a1.0280226 1.0280226 0 0 0 .03125 0h48.8125c1.665878 0 4.022349.23675 7.09375-1.84375a1.0280226 1.0280226 0 0 0 .28125-.21875c.0578-.0515.139644-.12864.25-.21875.220712-.18022.516774-.41745.78125-.625s.495635-.39648.65625-.53125c.04015-.0337.07966-.051.125-.0937.02267-.0214.04798-.0408.09375-.0937.02288-.0265.04727-.051.09375-.125.0081-.013.01807-.0366.03125-.0625 9.780644-9.33282 27.440979-28.680919 38.5-39.875 1.71105-1.711053 3.78125-3.862728 3.78125-8.5v-67.96875a1.0280226 1.0280226 0 0 0 0-.03125c-.01866-1.0296777-.7829-1.7940461-1.8125-1.81265a1.0280226 1.0280226 0 0 0 -.03125 0h-98.5625c-.03179-.00301-.06191.00137-.09375 0-.08491-.00365-.165226-.00803-.25 0z" filter="url(#l)" transform="matrix(1.003095 0 0 .98228452 -1.765551 .690986)"/><path d="m11.608716 5.836076v116.330904h49.485099c1.680486 0 3.926459-.55989 7.021752-3.56934 8.897609-8.6509 32.175353-31.250103 39.456483-38.511869 2.44813-2.441635 3.01026-4.433083 3.01026-6.66676l-.003-67.582935z" fill="#fff"/><path d="m17.07938 10.744349c-.340895 0-.501546.230461-.501546.491142v104.549779c0 .80702.681425 1.474 1.504643 1.47343l44.496615-.0308c.05324-.00004.812893.0229 1.504643.0308 1.783165-.0393 3.141667-.74038 4.369516-1.56504 1.055122-.28588 25.815399-23.810974 34.964739-32.837827 1.36662-1.348301 2.19223-3.878226 2.19223-4.808882v-66.81146c0-.317-.16372-.491143-.50156-.491143z" fill="url(#i)"/><path d="m17.07938 10.744349c-.340895 0-.501546.230461-.501546.491142v104.549779c0 .80703.68144 1.46853 1.504643 1.47343l46.36344.27591c.05324.00032 3.284015-.008 3.975766.00005 6.561216-4.42387 26.757215-26.379267 35.730127-35.221607.65937-.724227.45902-.363513 1.45841-1.578984v-69.498578c0-.317-.16372-.491143-.50156-.491143z" fill="url(#g)" opacity=".846535"/><g transform="matrix(.96214533 0 0 .96214533 12.392737 5.392732)"><circle cx="50" cy="50" r="45.934067" style="opacity:.871;fill:#fff;fill-rule:evenodd;stroke:#000;stroke-width:3.131868;stroke-linecap:round;stroke-linejoin:round;stroke-opacity:.784314"/><circle cx="50" cy="50.000023" fill="none" r="42.32143"/><path d="m50 6.3242189a43.676472 43.676472 0 0 0 -43.6757811 43.6757811 43.676472 43.676472 0 0 0 43.6757811 43.675781 43.676472 43.676472 0 0 0 43.675781-43.675781 43.676472 43.676472 0 0 0 -43.675781-43.6757811zm0 6.7109371c2.26423.0083 4.523397.224904 6.748047.646485.10716.48368.167969.98402.167969 1.5 0 3.82265-3.097269 6.918015-6.917969 6.916015-3.82069.0022-6.916016-3.091382-6.916016-6.914062 0-.5181.06204-1.02034.169922-1.50586 2.22479-.420165 4.483947-.635699 6.748047-.642578zm-18.994141 5.298828c-.24053 1.21916-.371333 2.474142-.371093 3.763672 0 7.71966 4.528393 14.367959 11.064453 17.480469v35.089844l8.298828 8.298828 8.300781-8.300781-.476562-7.34961 3.914062-3.912109-3.914062-3.912109 5.871093-5.867188-5.871093-5.871094.476562-8.177734c6.53802-3.11057 11.066406-9.758856 11.066406-17.478516 0-1.28696-.133397-2.540982-.373046-3.757812 11.132459 6.667543 17.954446 18.68374 17.972656 31.660156-.00054 20.414588-16.550254 36.964292-36.964844 36.964844-20.41459-.000552-36.964299-16.550255-36.964844-36.964844.01555-12.978245 6.837123-24.996792 17.970703-31.666016zm13.458985 25.898438h2.767578v27.666016h-2.765625l-.002-27.664063v-.002z" fill="#f9f9f9" fill-rule="evenodd"/><path d="m56.747561 13.681815c.107159.48368.16838.98465.16838 1.50063 0 3.822651-3.097351 6.917921-6.91805 6.915921-3.82069.0022-6.91594-3.09115-6.91594-6.913831 0-.5181.0626-1.02142.17048-1.50694 2.22479-.420165 4.483469-.635041 6.747569-.64192 2.26423.0083 4.52291.224559 6.74756.64614zm-26.11261 8.416551c0 7.71966 4.528179 14.36677 11.064239 17.47928v35.091179l8.2987 8.2987 8.30082-8.3008-.47566-7.3495 3.91258-3.9126-3.91258-3.9126 5.86992-5.867799-5.86992-5.8699.47565-8.17878c6.53802-3.11057 11.06635-9.75752 11.06635-17.47718 0-1.28696-.13288-2.54209-.37253-3.75892 11.132459 6.667543 17.953549 18.684164 17.97176 31.66058-.00054 20.414589-16.549689 36.963749-36.96428 36.964299-20.41459-.00055-36.96374-16.54971-36.96428-36.964299.0155-12.978245 6.83607-24.997676 17.96965-31.6669-.24053 1.21916-.37066 2.47571-.37042 3.76524zm13.829769 22.13472h2.76764v27.665839h-2.76554l-.002-27.663749v-.002z" fill="url(#m)" opacity=".94"/></g><path clip-path="url(#f)" d="m114.4 82.502986c0 4.465301-9.3766 4.299815-11.85883 5.983488-5.108537 3.46508-16.574334-.810699-22.355504-.729679-.081 5.781159.365076 18.386735.365076 24.536755 0 2.97817-3.440475 11.20945-6.350745 11.20945-2.091359 1.5337 3.488204 8.21101 6.734971 5.31989 9.501888-8.46107 35.131682-30.022701 43.350822-39.262886 2.04044-2.29392-4.90514-9.844666-9.88579-7.057018z" filter="url(#h)" opacity=".605634" transform="matrix(1.258302 0 0 1.2610357 -31.355772 -28.164007)"/><path clip-path="url(#f)" d="m113.9 82.502986c0 4.465301-7.96273 7.457662-10.95287 7.881439-6.394981.906328-15.304541-.844131-21.085711-.763111-.081 5.781159 3.397918 20.001056-.06716 25.109596-1.68367 2.48224-3.883991 8.07209-6.794261 8.07209-2.091359 1.5337 3.488204 11.21101 6.734971 8.31989 9.501888-8.46107 45.998943-30.20138 54.218083-39.441569 2.04044-2.29392-17.0724-11.965986-22.05305-9.178335z" filter="url(#k)" opacity=".643192" transform="matrix(1.3586765 0 0 1.3616521 -42.382653 -40.155635)"/><path d="m110.63455 70.194961c0 6.22666-3.89615 8.938389-7.35324 11.28619-7.11485 4.831902-21.758838 3.808851-29.810472 3.92183-.112812 8.061568.720236 21.530529-4.105701 28.654139-2.344905 3.46138-6.904898 8.42993-10.95813 8.42993 3.228399 0 6.605514-1.86127 10.562523-5.69609 12.732335-12.33915 24.187814-22.50002 35.75589-35.27627 2.67259-2.951702 5.90913-5.078441 5.90913-11.319729z" fill="url(#e)"/><path d="m110.66063 69.760596c-.44065 5.437134-4.51314 7.338042-6.73057 8.843942-5.25734 3.570397-12.241076 3.279514-34.154353 3.279514 0 19.761338.513212 28.553598-3.305002 33.382518-2.272989 2.87466-6.824021 6.07997-10.532933 6.90254 5.082113 0 8.629228-1.08751 11.949253-4.30502.472301-.5418 1.415698-1.55003 2.15657-2.69493 3.94064-5.81684 3.837814-17.294735 3.837814-29.263474 8.051633-.11295 22.202451 1.162156 29.317291-3.669742.64822-.440215 2.63774-2.020759 3.2183-2.58944 3.22475-3.158721 3.92397-5.17219 4.24363-9.885908zm-54.722858 52.408514c-.219575.0485-.436533.0579-.652846.087.218648-.0234.432367-.0468.652846-.087z" fill="#fff"/><path clip-path="url(#c)" d="m108.97651 89.508691-29.041615 28.702079" fill="none" filter="url(#d)" stroke="url(#a)" stroke-width="1.827074" transform="matrix(1.3927341 0 0 1.3944553 -45.351691 -44.851769)"/></svg>