<svg height="128" width="128" xmlns="http://www.w3.org/2000/svg" xmlns:xlink="http://www.w3.org/1999/xlink"><linearGradient id="a"><stop offset="0" stop-color="#fff"/><stop offset="1" stop-color="#fff" stop-opacity="0"/></linearGradient><linearGradient id="b" gradientUnits="userSpaceOnUse" x1="72" x2="72" y1="0" y2="116.40091"><stop offset="0" stop-color="#eeecec"/><stop offset=".40000001" stop-color="#f4f4f4"/><stop offset="1" stop-color="#f6f5f5"/></linearGradient><radialGradient id="c" cx="64" cy="64.004021" fx="63.793392" fy="47.274845" gradientTransform="matrix(1.6842105 -.08429519 .06886339 1.3758846 -48.197002 -18.663233)" gradientUnits="userSpaceOnUse" r="47.5" xlink:href="#a"/><clipPath id="d"><path d="m17.000001 8-.000001 112h57.5c1.675283 0 3.914297-.56468 7-3.6 8.870045-8.72523 20.24047-19.851805 27.49904-27.175957 2.44056-2.462612 3.00096-4.47117 3.00096-6.724043v-74.5z"/></clipPath><filter id="e" height="1.241294" width="1.225275" x="-.112638" y="-.120647"><feGaussianBlur stdDeviation="2.3860572"/></filter><filter id="f" height="2.025501" width="1.957419" x="-.478709" y="-.512751"><feGaussianBlur stdDeviation="10.140743"/></filter><clipPath id="g"><path d="m112 82.502986c0 4.465301-2.79749 6.409952-5.27972 8.093625-5.10854 3.46508-14.939114 3.32536-20.720284 3.40638-.081 5.781159.16586 15.504599-3.29922 20.613139-1.68367 2.48224-5.29051 5.38687-8.20078 5.38687 2.31803 0 4.74284-1.33476 7.58402-4.08481 9.14197-8.84873 17.36714-16.13535 25.673154-25.297529 1.91895-2.116745 4.24283-3.641881 4.24283-8.117675z"/></clipPath><linearGradient gradientUnits="userSpaceOnUse" x1="86.88201248139" x2="95.70883902098" y1="93.75643919115" y2="102.58326471875"><stop offset="0" stop-color="#fcfcfc"/><stop offset=".52275378" stop-color="#f8f8f8"/><stop offset=".77457333" stop-color="#f0efef"/><stop offset=".90122044" stop-color="#e3e1e1"/><stop offset="1" stop-color="#cecbcb"/></linearGradient><linearGradient id="h" gradientUnits="userSpaceOnUse" x1="86.88201248139" x2="95.42764561063" y1="93.75643919115" y2="102.30207434436"><stop offset="0" stop-color="#fcfcfc"/><stop offset=".52275378" stop-color="#f8f8f8"/><stop offset=".72337759" stop-color="#f0efef"/><stop offset=".89024991" stop-color="#e3e1e1"/><stop offset="1" stop-color="#cecbcb"/></linearGradient><filter id="i"><feGaussianBlur stdDeviation=".43040059"/></filter><radialGradient id="j" cx="90.750004025" cy="110.25296681175" gradientUnits="userSpaceOnUse" r="24.50127823847" xlink:href="#a"/><filter id="k"><feGaussianBlur stdDeviation="1.036"/></filter><filter id="l"><feGaussianBlur stdDeviation="1.50075"/></filter><linearGradient id="m" gradientUnits="userSpaceOnUse" x1="53.238865" x2="53.238865" y1="12.753036" y2="86.356995"><stop offset="0" stop-color="#226e23"/><stop offset="1" stop-color="#63ab3a"/></linearGradient><path d="m17 8.5v112h58.1875c2.115556 0 4.528919-1.77169 7-4.25.71234-.71442 1.440746-1.39395 2.15625-2.09375.415612-.40649.832187-.81443 1.25-1.21875 7.773958-7.40962 14.98341-14.022603 22.21875-22 .42065-.420645.81207-.811101 1.15625-1.1875 1.46444-1.497657 2.76158-2.837804 2.99375-5.8625l.0375-.73125v-74.65625z" filter="url(#l)" opacity=".262376"/><path d="m17.000001 8-.000001 112.2h57.746418c4.168166 0 7.728581-4.85625 20.853582-17.1 7.48636-6.9837 10.43958-10.889428 13.15009-13.599933 1.74325-1.743252 3.24991-3.03751 3.24991-7.200067v-74.3z" fill-opacity=".700535" filter="url(#k)"/><path d="m17.000001 8-.000001 112h57.5c1.675283 0 3.914297-.56468 7-3.6 8.870045-8.72523 20.24047-19.851805 27.49904-27.175957 2.44056-2.462612 3.00096-4.47117 3.00096-6.724043v-74.5z" fill="#fff"/><path d="m18.5 9c-.339844 0-.5.2346178-.5.5v107.96875c0 .82158.679323 1.5 1.5 1.5h53.6875c.05307 0 .810384.0234 1.5.0313 1.777664-.0401 3.131974-.75374 4.356035-1.59328 1.051866-.29103 20.649835-19.619593 29.770955-28.809238 1.36239-1.372621 2.18546-3.948169 2.18546-4.895612l.00005-74.20192c0-.3227174-.16322-.5-.5-.5z" fill="url(#b)"/><path clip-path="url(#d)" d="m114.4 82.502986c0 4.465301-4.99749 6.609952-7.47972 8.293625-5.10854 3.46508-14.739114 3.52536-20.520284 3.60638-.081 5.781159-.03414 15.304599-3.49922 20.413139-1.68367 2.48224-5.79051 8.68687-8.70078 8.68687-2.091359 1.5337 3.488204 8.21101 6.734971 5.31989 9.501888-8.46107 35.131683-30.022704 43.350823-39.262889 2.04044-2.29392-4.90514-9.844666-9.88579-7.057015z" filter="url(#f)" opacity=".277228"/><path d="m18.5 9c-.339844 0-.5.2346178-.5.5v107.96875c0 .82158.679323 1.49953 1.5 1.5l54.5.03125c.05307.00003 3.273884-.008 3.9635.00005 6.540972-4.50361 22.6373-21.953284 31.58253-30.955094 1.47685-1.656484.4576-.370067 1.45391-1.607456l.00006-76.9375c0-.3227174-.16322-.5-.5-.5z" fill="url(#c)" opacity=".846535"/><path clip-path="url(#d)" d="m113.9 82.502986c0 4.465301-4.49749 6.609952-6.97972 8.293625-5.10854 3.46508-14.739114 3.52536-20.520284 3.60638-.081 5.781159.76586 15.304599-2.69922 20.413139-1.68367 2.48224-5.79051 7.98687-8.70078 7.98687-2.091359 1.5337 3.488204 11.21101 6.734971 8.31989 9.501888-8.46107 45.998943-30.20138 54.218083-39.441569 2.04044-2.29392-17.0724-11.965986-22.05305-9.178335z" filter="url(#e)" opacity=".40099"/><g transform="matrix(.95161901 0 0 .95161901 17.063867 10.945807)"><circle cx="50" cy="50" r="45.934067" style="opacity:.871;fill:#fff;fill-rule:evenodd;stroke:#000;stroke-width:3.131868;stroke-linecap:round;stroke-linejoin:round;stroke-opacity:.784314"/><circle cx="50" cy="50.000023" fill="none" r="42.32143"/><path d="m50 6.3242189a43.676472 43.676472 0 0 0 -43.6757811 43.6757811 43.676472 43.676472 0 0 0 43.6757811 43.675781 43.676472 43.676472 0 0 0 43.675781-43.675781 43.676472 43.676472 0 0 0 -43.675781-43.6757811zm0 6.7109371c2.26423.0083 4.523397.224904 6.748047.646485.10716.48368.167969.98402.167969 1.5 0 3.82265-3.097269 6.918015-6.917969 6.916015-3.82069.0022-6.916016-3.091382-6.916016-6.914062 0-.5181.06204-1.02034.169922-1.50586 2.22479-.420165 4.483947-.635699 6.748047-.642578zm-18.994141 5.298828c-.24053 1.21916-.371333 2.474142-.371093 3.763672 0 7.71966 4.528393 14.367959 11.064453 17.480469v35.089844l8.298828 8.298828 8.300781-8.300781-.476562-7.34961 3.914062-3.912109-3.914062-3.912109 5.871093-5.867188-5.871093-5.871094.476562-8.177734c6.53802-3.11057 11.066406-9.758856 11.066406-17.478516 0-1.28696-.133397-2.540982-.373046-3.757812 11.132459 6.667543 17.954446 18.68374 17.972656 31.660156-.00054 20.414588-16.550254 36.964292-36.964844 36.964844-20.41459-.000552-36.964299-16.550255-36.964844-36.964844.01555-12.978245 6.837123-24.996792 17.970703-31.666016zm13.458985 25.898438h2.767578v27.666016h-2.765625l-.002-27.664063v-.002z" fill="#f9f9f9" fill-rule="evenodd"/><path d="m56.747561 13.681815c.107159.48368.16838.98465.16838 1.50063 0 3.822651-3.097351 6.917921-6.91805 6.915921-3.82069.0022-6.91594-3.09115-6.91594-6.913831 0-.5181.0626-1.02142.17048-1.50694 2.22479-.420165 4.483469-.635041 6.747569-.64192 2.26423.0083 4.52291.224559 6.74756.64614zm-26.11261 8.416551c0 7.71966 4.528179 14.36677 11.064239 17.47928v35.091179l8.2987 8.2987 8.30082-8.3008-.47566-7.3495 3.91258-3.9126-3.91258-3.9126 5.86992-5.867799-5.86992-5.8699.47565-8.17878c6.53802-3.11057 11.06635-9.75752 11.06635-17.47718 0-1.28696-.13288-2.54209-.37253-3.75892 11.132459 6.667543 17.953549 18.684164 17.97176 31.66058-.00054 20.414589-16.549689 36.963749-36.96428 36.964299-20.41459-.00055-36.96374-16.54971-36.96428-36.964299.0155-12.978245 6.83607-24.997676 17.96965-31.6669-.24053 1.21916-.37066 2.47571-.37042 3.76524zm13.829769 22.13472h2.76764v27.665839h-2.76554l-.002-27.663749v-.002z" fill="url(#m)" opacity=".94"/></g><path d="m112 82.502986c0 4.465301-2.79749 6.409952-5.27972 8.093625-5.10854 3.46508-14.939114 3.32536-20.720284 3.40638-.081 5.781159.16586 15.504599-3.29922 20.613139-1.68367 2.48224-5.29051 5.38687-8.20078 5.38687 2.31803 0 4.74284-1.33476 7.58402-4.08481 9.14197-8.84873 17.36714-16.13535 25.673154-25.297529 1.91895-2.116745 4.24283-3.641881 4.24283-8.117675z" fill="url(#h)"/><path d="m112.01875 83.2125c-.31643 3.899106-3.52291 5.902807-5.85 7.48125-5.10854 3.46508-15.33758 2.32523-21.11875 2.40625-.081 5.781159.85258 16.31646-2.6125 21.425-1.473211 2.17196-4.099456 4.6601-6.7625 5.25 1.980459-.3623 3.884931-1.66139 6.26875-3.96875.339117-.38853.574297-.67895 1.10625-1.5 3.46508-5.10854 2.923687-14.465715 3.004687-20.246875 5.78117-.08102 15.718023.211955 20.826563-3.253125.46542-.315689 1.59399-1.187744 2.00625-1.6 1.53629-1.536293 2.90171-2.613421 3.13125-5.99375zm-36.34375 36.5625c-.157658.0349-.313437.0414-.46875.0625.156991-.0169.310443-.0335.46875-.0625z" fill="#fff"/><path clip-path="url(#g)" d="m117.31456 81.861283-44.675455 43.487067" fill="none" filter="url(#i)" stroke="url(#j)" stroke-width="1.2"/><path d="m1.060653 0h128v128h-128z" fill="#fbfbfb" fill-opacity=".003922" opacity=".01"/></svg>