<svg height="32" width="32" xmlns="http://www.w3.org/2000/svg"><path d="m26.758 6.8297-10.637-3.8087c-.07813-.028017-.16338-.028017-.2415 0l-10.637 3.8087c-.14515.051979-.2423.19133-.2423.34763 0 3.8544 1.0045 8.31 2.756 12.224 1.4207 3.1754 3.9755 7.4112 8.078 9.5568.05221.02728.10921.04092.16628.04092s.11407-.01364.16628-.04092c4.1022-2.146 6.657-6.3817 8.078-9.5568 1.7514-3.9146 2.756-8.3705 2.756-12.224 0-.15631-.09715-.29565-.2423-.34763z" fill="#59c156"/><path d="m21.868 12.063-5.8019-2.0508c-.04262-.015085-.08911-.015085-.13173 0l-5.8019 2.0508c-.07917.02799-.13216.10302-.13216.18719 0 2.0754.54791 4.4746 1.5033 6.5823.77493 1.7098 2.1685 3.9906 4.4062 5.1459.02848.01469.05957.02203.0907.02203s.06222-.0073.0907-.02203c2.2376-1.1555 3.6311-3.4363 4.4062-5.1459.95534-2.1078 1.5032-4.5071 1.5032-6.5823 0-.08416-.05299-.1592-.13216-.18719z" opacity=".2"/><path d="m21.868 11.062-5.802-2.0507c-.04262-.015086-.08911-.015086-.13173 0l-5.8019 2.0508c-.07917.02799-.13216.10302-.13216.18719 0 2.0754.54791 4.4746 1.5033 6.5823.77493 1.7098 2.1685 3.9906 4.4062 5.1459.02848.01469.05957.02203.0907.02203s.06222-.0073.0907-.02203c2.2376-1.1555 3.6311-3.4363 4.4062-5.1459.95534-2.1078 1.5032-4.5071 1.5032-6.5823 0-.08416-.05299-.1592-.13216-.18719z" fill="#fff"/><path d="m15.879 3.0214-10.637 3.8086c-.145.051999-.242.1913-.242.3476 0 .2976.0174.60409.0293.90819.0311-.1142.0991-.2151.2129-.2558l10.637-3.8086c.078-.028.164-.028.242 0l10.637 3.8086c.114.040699.182.1416.213.2558.012-.3041.029-.61059.029-.90819 0-.1563-.097-.2956-.242-.3476l-10.637-3.8086c-.078-.028-.164-.028-.242 0z" fill="#fff" opacity=".2"/><path d="m5.0293 8.0862c-.00857.031475-.029297.058029-.029297.0918 0 3.8544 1.0044 8.31 2.7559 12.224 1.4207 3.1754 3.9759 7.4105 8.078 9.5568.052.027.109.041.166.041.05707 0 .11381-.01374.16602-.04102 4.1022-2.146 6.6574-6.3812 8.078-9.5568 1.7514-3.9146 2.7559-8.3705 2.7559-12.224 0-.033768-.02072-.060322-.0293-.0918-.142 3.636-1.111 7.704-2.727 11.317-1.4208 3.1754-3.976 7.4105-8.078 9.5568-.05221.02728-.10895.04102-.16602.04102s-.11381-.01374-.16602-.04102c-4.102-2.147-6.6571-6.382-8.0781-9.557-1.6161-3.612-2.5846-7.681-2.7264-11.316z" opacity=".2"/></svg>