<svg height="32" width="32" xmlns="http://www.w3.org/2000/svg"><rect fill="#6573c3" height="28" rx="14" transform="matrix(0 -1 -1 0 0 0)" width="28" x="-30" y="-30"/><path d="m25.893 6.1095-19.781 19.78c5.4793 5.4793 14.302 5.4793 19.781 0 5.4793-5.4793 5.4793-14.302 0-19.781z" opacity=".1"/><path d="m6.1121 25.89 8.6542-11.127 1.1711 1.1711 1.3015 1.3015z" fill="#f2f2f2"/><path d="m25.893 6.1095-11.127 8.6542 2.4726 2.4726z" fill="#f34235"/><path d="m25.893 6.1095-19.781 19.78c-5.4793-5.4793-5.4793-14.302 0-19.781 5.4793-5.4793 14.302-5.4793 19.781 0z" fill="#fff" opacity=".2"/><path d="m16.003 2c-7.7564 0-14 6.244-14 14 0 .0735-.0059.14635 0 .21875.1495-7.6244 6.3383-13.719 14-13.719 7.6613 0 13.85 6.0946 14 13.719.006-.0724 0-.14521 0-.21875 0-7.756-6.244-14-14-14z" fill="#fff" opacity=".4"/><path d="m2.0273 16.5c-.00587.16736-.025391.33116-.025391.5 0 7.756 6.244 14 14 14s14-6.244 14-14c0-.16884-.01952-.33264-.02539-.5-.264 7.521-6.388 13.5-13.975 13.5-7.5872 0-13.711-5.979-13.975-13.5z" opacity=".2"/></svg>