<svg height="32" width="32" xmlns="http://www.w3.org/2000/svg"><rect fill="#325f78" height="28" rx="1.4" transform="matrix(0 -1 -1 0 0 0)" width="28" x="-30" y="-30"/><path d="m3.4004 2c-.7756 0-1.4004.6248-1.4004 1.4004v1c0-.7756.6248-1.4004 1.4004-1.4004h25.2c.775 0 1.4.6248 1.4 1.4004v-1c0-.7756-.625-1.4004-1.4-1.4004z" fill="#fff" opacity=".1"/><path d="m2 28.6v1c0 .775.6248 1.4 1.4004 1.4h25.2c.775 0 1.4-.625 1.4-1.4v-1c0 .775-.625 1.4-1.4 1.4h-25.2c-.7752 0-1.4-.625-1.4-1.4z" opacity=".2"/><g opacity=".2"><rect height="6" rx=".75" width="6" x="5" y="6"/><rect height="6" rx=".75" width="6" x="13" y="6"/><rect height="6" rx=".75" width="6" x="5" y="14"/><rect height="6" rx=".75" width="6" x="13" y="14"/><rect height="6" rx=".75" width="6" x="5" y="22"/></g><g fill="#fff"><rect height="6" rx=".75" width="6" x="5" y="5"/><rect height="6" rx=".75" width="6" x="13" y="5"/><rect height="6" rx=".75" width="6" x="5" y="13"/><rect height="6" rx=".75" width="6" x="13" y="13"/><rect height="6" rx=".75" width="6" x="5" y="21"/></g></svg>