<svg height="32" width="32" xmlns="http://www.w3.org/2000/svg"><rect fill="#f59335" height="28" rx="1.5" transform="matrix(0 -1 -1 0 0 0)" width="28" x="-30" y="-30"/><path d="m3.5 2c-.831 0-1.5.669-1.5 1.5v1c0-.831.669-1.5 1.5-1.5h25c.831 0 1.5.669 1.5 1.5v-1c0-.831-.669-1.5-1.5-1.5z" fill="#fff" opacity=".2"/><path d="m7.5 8c-.831 0-1.5.669-1.5 1.5v15c0 .831.669 1.5 1.5 1.5s1.5-.669 1.5-1.5v-15c0-.831-.669-1.5-1.5-1.5zm8 0c-.831 0-1.5.669-1.5 1.5v15c0 .831.669 1.5 1.5 1.5s1.5-.669 1.5-1.5v-15c0-.831-.669-1.5-1.5-1.5zm8 0c-.831 0-1.5.669-1.5 1.5v15c0 .831.669 1.5 1.5 1.5s1.5-.669 1.5-1.5v-15c0-.831-.669-1.5-1.5-1.5z" opacity=".3"/><path d="m2 28.5v1c0 .831.669 1.5 1.5 1.5h25c.831 0 1.5-.669 1.5-1.5v-1c0 .831-.669 1.5-1.5 1.5h-25c-.831 0-1.5-.669-1.5-1.5z" opacity=".2"/><path d="m6 14v10.5c0 .831.669 1.5 1.5 1.5s1.5-.669 1.5-1.5v-10.5zm16 3v7.5c0 .831.669 1.5 1.5 1.5s1.5-.669 1.5-1.5v-7.5zm-8 4v3.5c0 .831.669 1.5 1.5 1.5s1.5-.669 1.5-1.5v-3.5z" fill="#4f4f4f"/><path d="m7.5 12c-1.3807119 0-2.5 1.119288-2.5 2.5s1.1192881 2.5 2.5 2.5 2.5-1.119288 2.5-2.5-1.1192881-2.5-2.5-2.5zm16 3c-1.380712 0-2.5 1.119288-2.5 2.5s1.119288 2.5 2.5 2.5 2.5-1.119288 2.5-2.5-1.119288-2.5-2.5-2.5zm-8 4c-1.380712 0-2.5 1.119288-2.5 2.5s1.119288 2.5 2.5 2.5 2.5-1.119288 2.5-2.5-1.119288-2.5-2.5-2.5z" opacity=".2"/><path d="m7.5 11c-1.3807119 0-2.5 1.119288-2.5 2.5s1.1192881 2.5 2.5 2.5 2.5-1.119288 2.5-2.5-1.1192881-2.5-2.5-2.5zm16 3c-1.380712 0-2.5 1.119288-2.5 2.5s1.119288 2.5 2.5 2.5 2.5-1.119288 2.5-2.5-1.119288-2.5-2.5-2.5zm-8 4c-1.380712 0-2.5 1.119288-2.5 2.5s1.119288 2.5 2.5 2.5 2.5-1.119288 2.5-2.5-1.119288-2.5-2.5-2.5z" fill="#fff"/></svg>