<svg height="32" width="32" xmlns="http://www.w3.org/2000/svg"><path d="m6.2820032 1.5206388c-.76911 0-1.3882853.6191752-1.3882853 1.3882853v1.1106282c0-.7691101.6191753-1.3882853 1.3882853-1.3882853h12.4945678v-1.1106282z" fill="#fff" opacity=".2" stroke-width="1.110628"/><g stroke-width=".936752"><path d="m10.247349 8.3134695a7.4940175 7.4940175 0 0 0 -7.4940173 7.4940185 7.4940175 7.4940175 0 0 0 7.4940173 7.494017 7.4940175 7.4940175 0 0 0 6.941521-4.683761h4.299693v2.810257h4.683761v-2.810257h2.810255v-5.620514h-11.791836a7.4940175 7.4940175 0 0 0 -6.9433-4.6837605z" fill="#5faf26"/><circle cx="10.247351" cy="16.74424" opacity=".2" r="2.810257"/><circle cx="10.247351" cy="15.807487" fill="#f9f9f9" r="2.810257"/><path d="m10.247349 8.3134695a7.4940175 7.4940175 0 0 0 -7.4940173 7.4940185 7.4940175 7.4940175 0 0 0 .020145.397181 7.4940175 7.4940175 0 0 1 7.4738783-6.9544475 7.4940175 7.4940175 0 0 1 6.9433 4.6837605h11.791835v-.936752h-11.791835a7.4940175 7.4940175 0 0 0 -6.943207-4.6837605z" fill="#fff" opacity=".2"/><path d="m2.7734731 16.204669a7.4940175 7.4940175 0 0 0 -.020145.539569 7.4940175 7.4940175 0 0 0 7.4940159 7.494019 7.4940175 7.4940175 0 0 0 6.941521-4.683761h4.299693v-.936752h-4.299506a7.4940175 7.4940175 0 0 1 -6.941333 4.683761 7.4940175 7.4940175 0 0 1 -7.4738758-7.096836zm23.3981949 2.413075v.936752h2.810256v-.936752zm-4.683761 2.810257v.936751h4.683761v-.936751z" opacity=".2"/></g><g stroke-width="1.414729"><path d="m19.131321 3.5095707c-.212575.2125771-.343872.510033-.343874.8401504l.01172 3.2707246 6.240562.0000009.01172-3.2707246c-.000001-.6602411-.521832-1.1820718-1.182072-1.1820721l-3.899861-.0000002c-.33012.0000007-.625618.1293442-.838195.341921zm-.334104 6.3519239.002 15.7655114 3.120277 3.120277 3.120278-3.120276.002-15.7655114z" fill-opacity=".97" opacity=".2"/><path d="m18.776571 2.631267c-.212575.2125763-.343872.510032-.343874.8401495l.01172 3.2707245 6.240562.0000012.01172-3.2707246c-.000001-.6602411-.521832-1.182072-1.182072-1.1820714h-3.899861c-.33012-.0000002-.625618.1293433-.838195.3419208zm-.334104 6.3519246.002 15.7655114 3.120277 3.120277 3.120278-3.120276.002-15.7655124z" fill="#5294e2"/></g></svg>