<?xml version="1.0" encoding="UTF-8" standalone="no"?>
<svg
   xmlns:dc="http://purl.org/dc/elements/1.1/"
   xmlns:cc="http://creativecommons.org/ns#"
   xmlns:rdf="http://www.w3.org/1999/02/22-rdf-syntax-ns#"
   xmlns:svg="http://www.w3.org/2000/svg"
   xmlns="http://www.w3.org/2000/svg"
   xmlns:sodipodi="http://sodipodi.sourceforge.net/DTD/sodipodi-0.dtd"
   xmlns:inkscape="http://www.inkscape.org/namespaces/inkscape"
   width="32"
   height="32"
   version="1"
   id="svg16"
   sodipodi:docname="document-new.svg"
   inkscape:version="0.92.2 2405546, 2018-03-11">
  <metadata
     id="metadata22">
    <rdf:RDF>
      <cc:Work
         rdf:about="">
        <dc:format>image/svg+xml</dc:format>
        <dc:type
           rdf:resource="http://purl.org/dc/dcmitype/StillImage" />
      </cc:Work>
    </rdf:RDF>
  </metadata>
  <defs
     id="defs20" />
  <sodipodi:namedview
     pagecolor="#ffffff"
     bordercolor="#666666"
     borderopacity="1"
     objecttolerance="10"
     gridtolerance="10"
     guidetolerance="10"
     inkscape:pageopacity="0"
     inkscape:pageshadow="2"
     inkscape:window-width="1765"
     inkscape:window-height="1045"
     id="namedview18"
     showgrid="false"
     inkscape:zoom="14.75"
     inkscape:cx="13.895206"
     inkscape:cy="5.3876729"
     inkscape:window-x="2827"
     inkscape:window-y="162"
     inkscape:window-maximized="0"
     inkscape:current-layer="svg16" />
  <path
     style="opacity:0.2;stroke-width:0.9681868"
     d="m 6.4436199,3.273262 c -0.6704693,0 -1.2102335,0.5397641 -1.2102335,1.2102335 V 26.267698 c 0,0.669986 0.5397642,1.210234 1.2102335,1.210234 H 23.386889 c 0.669985,0 1.210233,-0.540248 1.210233,-1.210234 V 11.018756 L 17.940838,9.9295463 16.851628,3.273262 Z"
     id="path2"
     inkscape:connector-curvature="0" />
  <path
     d="m 6.4436199,2.3050752 c -0.6704693,0 -1.2102335,0.5397641 -1.2102335,1.2102334 V 25.299511 c 0,0.669986 0.5397642,1.210234 1.2102335,1.210234 H 23.386889 c 0.669985,0 1.210233,-0.540248 1.210233,-1.210234 V 10.05057 L 17.940838,8.9613591 16.851628,2.3050752 Z"
     id="path4"
     inkscape:connector-curvature="0"
     style="fill:#3e50b4;stroke-width:0.9681868" />
  <path
     style="opacity:0.2;stroke-width:0.9681868"
     d="m 16.851628,3.273262 v 6.4546117 c 0,0.7125853 0.578007,1.2905923 1.290593,1.2905923 h 6.454901 L 16.851628,3.2729716 Z"
     id="path6"
     inkscape:connector-curvature="0" />
  <path
     d="m 16.851628,2.3050752 v 6.4546113 c 0,0.7125853 0.578007,1.2905925 1.290593,1.2905925 h 6.454901 L 16.851628,2.3047847 Z"
     id="path8"
     inkscape:connector-curvature="0"
     style="fill:#7482d0;stroke-width:0.9681868" />
  <path
     d="m 6.4436199,2.3050752 c -0.6704693,0 -1.2102335,0.5397641 -1.2102335,1.2102334 v 0.9681869 c 0,-0.6704694 0.5397642,-1.2102335 1.2102335,-1.2102335 H 16.851628 V 2.3050752 Z"
     style="opacity:0.1;fill:#ffffff;stroke-width:0.9681868"
     id="path10"
     inkscape:connector-curvature="0" />
  <circle
     style="opacity:0.2"
     cx="21.423729"
     cy="22.398304"
     r="8"
     id="circle30" />
  <circle
     style="fill:#009545"
     cx="21.423729"
     cy="21.398304"
     r="8"
     id="circle32" />
  <path
     inkscape:connector-curvature="0"
     style="fill:#ffffff"
     d="m 20.42373,16.398305 v 4 h -4 v 2 h 4 v 4.000001 h 2 v -4.000001 h 3.999999 v -2 H 22.42373 v -4 z"
     id="path34" />
</svg>
