<svg height="32" width="32" xmlns="http://www.w3.org/2000/svg"><g stroke-width="1.082843"><rect height="14.762712" opacity=".2" rx="1.290678" ry="1.419491" width="25.813559" x="3" y="14.457626"/><path d="m3 22.122882c0 .785829.5756424 1.419491 1.290678 1.419491h23.232203c.71452 0 1.290678-.633662 1.290678-1.419491v-15.3305091c0-.7863984-.576158-1.4194915-1.290678-1.4194915h-13.164915v-.8516949c0-.7863983-.575126-1.4194916-1.290678-1.4194916h-8.77661c-.7150356 0-1.290678.6330933-1.290678 1.4194916" fill="#3467a8"/><rect height="14.762712" opacity=".2" rx="1.290678" ry="1.419491" width="25.813559" x="3" y="12.18644"/><rect fill="#e4e4e4" height="11.355931" rx="1.290678" ry="1.419491" width="21.68339" x="5.065085" y="7.644067"/><rect fill="#5294e2" height="14.762712" rx="1.290678" ry="1.419491" width="25.813559" x="3" y="13.322034"/><path d="m4.290678 3.1016949c-.7155519 0-1.290678.6330933-1.290678 1.4194916v1.1355932c0-.7863983.5751261-1.4194916 1.290678-1.4194916h8.77661c.715552 0 1.290678.6330933 1.290678 1.4194916v.8516949h13.164915c.71452 0 1.290678.6330932 1.290678 1.4194916v-1.1355933c0-.7863984-.576158-1.4194915-1.290678-1.4194915h-13.164915v-.8516949c0-.7863983-.575126-1.4194916-1.290678-1.4194916z" fill="#fff" opacity=".1"/></g></svg>