<svg height="32" width="32" xmlns="http://www.w3.org/2000/svg"><g stroke-width=".968187"><path d="m6.4436199 3.273262c-.6704693 0-1.2102335.5397641-1.2102335 1.2102335v21.7842025c0 .669986.5397642 1.210234 1.2102335 1.210234h16.9432691c.669985 0 1.210233-.540248 1.210233-1.210234v-15.248942l-6.656284-1.0892097-1.08921-6.6562843z" opacity=".2"/><path d="m6.4436199 2.3050752c-.6704693 0-1.2102335.5397641-1.2102335 1.2102334v21.7842024c0 .669986.5397642 1.210234 1.2102335 1.210234h16.9432691c.669985 0 1.210233-.540248 1.210233-1.210234v-15.248941l-6.656284-1.0892109-1.08921-6.6562839z" fill="#5294e2"/><path d="m16.851628 3.273262v6.4546117c0 .7125853.578007 1.2905923 1.290593 1.2905923h6.454901l-7.745494-7.7454944z" opacity=".2"/><path d="m16.851628 2.3050752v6.4546113c0 .7125853.578007 1.2905925 1.290593 1.2905925h6.454901l-7.745494-7.7454943z" fill="#4980bc"/><path d="m6.4436199 2.3050752c-.6704693 0-1.2102335.5397641-1.2102335 1.2102334v.9681869c0-.6704694.5397642-1.2102335 1.2102335-1.2102335h10.4080081v-.9681868z" fill="#fff" opacity=".1"/></g><circle cx="21.423729" cy="22.398304" opacity=".2" r="8"/><circle cx="21.423729" cy="21.398304" fill="#5faf26" r="8"/><path d="m20.42373 16.398305v4h-4v2h4v4.000001h2v-4.000001h3.999999v-2h-3.999999v-4z" fill="#fff"/></svg>