<svg height="32" width="32" xmlns="http://www.w3.org/2000/svg"><rect height="26" opacity=".2" rx="1.25" transform="matrix(0 -1 -1 0 0 0)" width="26" x="-30" y="-29"/><rect fill="#4f4f4f" height="26" rx="1.25" transform="matrix(0 -1 -1 0 0 0)" width="26" x="-29" y="-29"/><rect height="12" opacity=".2" rx="1.25" width="20" x="6" y="16"/><rect fill="#fff" height="12" rx="1.25" width="20" x="6" y="15"/><path d="m6 24v1.75c0 .692.5575 1.25 1.25 1.25h17.5c.692 0 1.25-.558 1.25-1.25v-1.75z" fill="#ffae3f"/><path d="m10 4v8.75c0 .693.557 1.25 1.25 1.25h13.5c.692 0 1.25-.557 1.25-1.25v-8.75zm10 2h3c.554 0 1 .446 1 1v4c0 .554-.446 1-1 1h-3c-.554 0-1-.446-1-1v-4c0-.554.446-1 1-1z" opacity=".2"/><path d="m10 3v8.75c0 .693.557 1.25 1.25 1.25h13.5c.692 0 1.25-.557 1.25-1.25v-8.75zm10 2h3c.554 0 1 .446 1 1v4c0 .554-.446 1-1 1h-3c-.554 0-1-.446-1-1v-4c0-.554.446-1 1-1z" fill="#b7b7b7"/><path d="m4.25 3c-.6925 0-1.25.5575-1.25 1.25v1c0-.6925.5575-1.25 1.25-1.25h23.5c.692 0 1.25.5575 1.25 1.25v-1c0-.6925-.558-1.25-1.25-1.25z" fill="#fff" opacity=".1"/><g stroke-width="1.321712"><path d="m27.050624 8.408959c-.280864 0-.564103.109768-.782185.327846l-2.152947 2.168434 4.122607 4.122605 2.168434-2.152945c.436165-.436165.436165-1.125624 0-1.561789l-2.576306-2.576305c-.218083-.218082-.498741-.327846-.779603-.327846zm-4.416894 3.975461-10.413646 10.41623v4.122605h4.122605l10.416228-10.413647z" opacity=".2"/><path d="m26.906805 7.5939882c-.280864 0-.564103.1097682-.782185.3278467l-2.152947 2.1684341 4.122607 4.122605 2.168434-2.152945c.436165-.436165.436165-1.125624 0-1.561789l-2.576306-2.5763051c-.218083-.2180825-.498741-.3278467-.779603-.3278467zm-4.416894 3.9754618-10.413646 10.416229v4.122605h4.122605l10.416228-10.413646z" fill="#5294e0"/></g></svg>