<svg height="16" viewBox="0 0 16 16" width="16" xmlns="http://www.w3.org/2000/svg"><path d="m12.270897 1.4216621c-.2125 0-.426797.083047-.591797.2480469l-1.628907 1.640625 3.119141 3.1191406 1.640625-1.6289063c.33-.3299999.33-.8516406 0-1.1816406l-1.949219-1.9492187c-.165-.165-.377344-.2480469-.589843-.2480469zm-3.3417974 3.0078125-7.8789062 7.8808594v3.11914h3.1191406l7.880859-7.8789057z" opacity=".2"/><path d="m12.210938 1c-.2125 0-.426797.0830469-.591797.2480469l-1.6289066 1.640625 3.1191406 3.1191406 1.640625-1.6289063c.33-.3299999.33-.8516406 0-1.1816406l-1.949219-1.9492187c-.165-.165-.377344-.2480469-.589843-.2480469zm-3.3417974 3.0078125-7.87890622 7.8808595v3.11914h3.11914062l7.880859-7.8789058z" fill="#5294e2"/></svg>