<?xml version="1.0" encoding="UTF-8" standalone="no"?>
<svg
   xmlns:dc="http://purl.org/dc/elements/1.1/"
   xmlns:cc="http://creativecommons.org/ns#"
   xmlns:rdf="http://www.w3.org/1999/02/22-rdf-syntax-ns#"
   xmlns:svg="http://www.w3.org/2000/svg"
   xmlns="http://www.w3.org/2000/svg"
   xmlns:sodipodi="http://sodipodi.sourceforge.net/DTD/sodipodi-0.dtd"
   xmlns:inkscape="http://www.inkscape.org/namespaces/inkscape"
   width="32"
   height="32"
   version="1"
   id="svg18"
   sodipodi:docname="document-save-as.svg"
   inkscape:version="0.92.2 2405546, 2018-03-11">
  <metadata
     id="metadata24">
    <rdf:RDF>
      <cc:Work
         rdf:about="">
        <dc:format>image/svg+xml</dc:format>
        <dc:type
           rdf:resource="http://purl.org/dc/dcmitype/StillImage" />
      </cc:Work>
    </rdf:RDF>
  </metadata>
  <defs
     id="defs22">
    <style
       type="text/css"
       id="current-color-scheme">
   .ColorScheme-Text { color:#444444; } .ColorScheme-Highlight { color:#5294e2; }
  </style>
  </defs>
  <sodipodi:namedview
     pagecolor="#ffffff"
     bordercolor="#666666"
     borderopacity="1"
     objecttolerance="10"
     gridtolerance="10"
     guidetolerance="10"
     inkscape:pageopacity="0"
     inkscape:pageshadow="2"
     inkscape:window-width="2229"
     inkscape:window-height="1188"
     id="namedview20"
     showgrid="false"
     inkscape:zoom="20.85965"
     inkscape:cx="9.072287"
     inkscape:cy="17.412297"
     inkscape:window-x="368"
     inkscape:window-y="119"
     inkscape:window-maximized="0"
     inkscape:current-layer="svg18" />
  <rect
     style="opacity:0.2"
     width="26"
     height="26"
     x="-30"
     y="-29"
     rx="1.25"
     ry="1.25"
     transform="matrix(0,-1,-1,0,0,0)"
     id="rect2" />
  <rect
     style="fill:#4f4f4f"
     width="26"
     height="26"
     x="-29"
     y="-29"
     rx="1.25"
     ry="1.25"
     transform="matrix(0,-1,-1,0,0,0)"
     id="rect4" />
  <rect
     style="opacity:0.2"
     width="20"
     height="12"
     x="6"
     y="16"
     rx="1.25"
     ry="1.25"
     id="rect6" />
  <rect
     style="fill:#ffffff"
     width="20"
     height="12"
     x="6"
     y="15"
     rx="1.25"
     ry="1.25"
     id="rect8" />
  <path
     style="fill:#ffae3f"
     d="M 6,24 V 25.75 C 6,26.442 6.5575,27 7.25,27 H 24.75 C 25.442,27 26,26.442 26,25.75 V 24 Z"
     id="path10" />
  <path
     style="opacity:0.2"
     d="M 10,4 V 12.75 C 10,13.443 10.557,14 11.25,14 H 24.75 C 25.442,14 26,13.443 26,12.75 V 4 Z M 20,6 H 23 C 23.554,6 24,6.446 24,7 V 11 C 24,11.554 23.554,12 23,12 H 20 C 19.446,12 19,11.554 19,11 V 7 C 19,6.446 19.446,6 20,6 Z"
     id="path12" />
  <path
     style="fill:#b7b7b7"
     d="M 10,3 V 11.75 C 10,12.443 10.557,13 11.25,13 H 24.75 C 25.442,13 26,12.443 26,11.75 V 3 Z M 20,5 H 23 C 23.554,5 24,5.446 24,6 V 10 C 24,10.554 23.554,11 23,11 H 20 C 19.446,11 19,10.554 19,10 V 6 C 19,5.446 19.446,5 20,5 Z"
     id="path14" />
  <path
     style="fill:#ffffff;opacity:0.1"
     d="M 4.25 3 C 3.5575 3 3 3.5575 3 4.25 L 3 5.25 C 3 4.5575 3.5575 4 4.25 4 L 27.75 4 C 28.442 4 29 4.5575 29 5.25 L 29 4.25 C 29 3.5575 28.442 3 27.75 3 L 4.25 3 z"
     id="path16" />
  <path
     id="path898"
     d="m 26.906805,7.5939882 c -0.280864,0 -0.564103,0.1097682 -0.782185,0.3278467 l -2.152947,2.1684341 4.122607,4.122605 2.168434,-2.152945 c 0.436165,-0.436165 0.436165,-1.125624 0,-1.561789 L 27.686408,7.9218349 C 27.468325,7.7037524 27.187667,7.5939882 26.906805,7.5939882 Z M 22.489911,11.56945 12.076265,21.985679 v 4.122605 H 16.19887 L 26.615098,15.694638 Z"
     class="ColorScheme-Text"
     style="color:#444444;fill:#5294e0;fill-opacity:1;stroke-width:1.32171214"
     inkscape:connector-curvature="0" />
</svg>
