<svg height="16" viewBox="0 0 16 16" width="16" xmlns="http://www.w3.org/2000/svg"><g stroke-width=".828687"><circle cx="8.025626" cy="7.819467" fill="#5266e2" r="6.629496"/><path d="m6.7966839 11.0298c0-.172011.024695-.317338.074085-.436379.049389-.118651.1178558-.214614.2058459-.28787.087592-.07325.1911118-.126216.3101609-.159264.1186515-.03265.2456643-.04939.3810386-.04939.1282062 0 .250048.01674.3651196.04939.1150631.03307.2165939.086.3045838.159264.087601.07326.1568788.169219.2082409.28787.051379.119041.076819.264368.076819.436379 0 .164833-.02544.305784-.076819.422845-.051379.116663-.1206404.214208-.2082409.291052-.087989.07649-.1895207.132191-.3045838.167228-.1150716.03464-.2369134.05213-.3651196.05213-.1353743 0-.2623871-.01748-.3810386-.05213-.119049-.03506-.2225686-.09078-.3101608-.167228-.087989-.07682-.156481-.174389-.2058459-.291052-.048893-.116845-.073754-.257722-.073754-.422631m.1811678-1.8768918v-.4057248c0-.1867363.019143-.3559543.057676-.5076537.0382036-.1520889.0967588-.2962225.1755912-.4335939.0784766-.1369654.179966-.2707403.3041945-.4005458.1246179-.1298056.2747262-.2643844.4503168-.4033386.1536883-.1206402.2834938-.2285436.3894-.3240995.1063039-.0947606.1919074-.1891312.2580117-.28269.0657151-.0931688.1134721-.1907223.1425341-.2930486.029502-.102724.044252-.2217814.044252-.3567497 0-.2086386-.070853-.3810387-.2114312-.5160151-.1409514-.1353744-.3559542-.2030615-.6450086-.2030615-.2520452 0-.5239788.052954-.8150386.1588676-.2902559.1063039-.5916659.2361012-.9026058.3897978l-.5594052-1.2127835c.1568788-.0915781.3280856-.1783749.5128247-.26039.1851536-.0824543.3770608-.1556854.5761447-.2197843.1994732-.063726.4017392-.114276.6063916-.150904.2050587-.036628.4061229-.054942.6040135-.054942.3730748 0 .7095218.044998 1.0093407.1345788.300216.089581.5546402.2201738.7628728.3921844.2090361.1720024.3687003.3810386.4801833.6259074.111881.2452665.167627.5247743.167627.8392941 0 .2305325-.02593.4363866-.07682.617546-.05097.1811675-.127411.3495817-.227351.504861-.101132.1556851-.2273492.3057851-.3790489.449927-.1516996.1445313-.3284838.2974241-.5295564.4582805-.1536884.1206403-.2791015.2261487-.3762568.315738-.0967575.0895894-.1728061.1747949-.2273503.2548213-.0549422.0807971-.0923658.1640469-.1126766.250048-.0199713.085603-.0302475.1871341-.0302475.3041944v.3292787h-1.4485444z" fill="#fff"/><path d="m14.63772 8.1708302a6.6294961 6.6294961 0 0 1 -6.6120933 6.2781308 6.6294961 6.6294961 0 0 1 -6.6120936-6.1521705 6.6294961 6.6294961 0 0 0 -.0174024.3513633 6.6294961 6.6294961 0 0 0 6.629496 6.6294952 6.6294961 6.6294961 0 0 0 6.6294963-6.6294952 6.6294961 6.6294961 0 0 0 -.0178-.4774646z" opacity=".2"/></g></svg>