<?xml version="1.0" encoding="UTF-8" standalone="no"?>
<svg
   xmlns:dc="http://purl.org/dc/elements/1.1/"
   xmlns:cc="http://creativecommons.org/ns#"
   xmlns:rdf="http://www.w3.org/1999/02/22-rdf-syntax-ns#"
   xmlns:svg="http://www.w3.org/2000/svg"
   xmlns="http://www.w3.org/2000/svg"
   xmlns:sodipodi="http://sodipodi.sourceforge.net/DTD/sodipodi-0.dtd"
   xmlns:inkscape="http://www.inkscape.org/namespaces/inkscape"
   width="16"
   height="16"
   viewBox="0 0 16 16"
   version="1.1"
   id="svg7"
   sodipodi:docname="help-about.svg"
   inkscape:version="0.92.2 2405546, 2018-03-11">
  <metadata
     id="metadata11">
    <rdf:RDF>
      <cc:Work
         rdf:about="">
        <dc:format>image/svg+xml</dc:format>
        <dc:type
           rdf:resource="http://purl.org/dc/dcmitype/StillImage" />
      </cc:Work>
    </rdf:RDF>
  </metadata>
  <sodipodi:namedview
     pagecolor="#ffffff"
     bordercolor="#666666"
     borderopacity="1"
     objecttolerance="10"
     gridtolerance="10"
     guidetolerance="10"
     inkscape:pageopacity="0"
     inkscape:pageshadow="2"
     inkscape:window-width="1274"
     inkscape:window-height="849"
     id="namedview9"
     showgrid="false"
     inkscape:zoom="20.85965"
     inkscape:cx="5.2398537"
     inkscape:cy="10.422574"
     inkscape:window-x="3561"
     inkscape:window-y="370"
     inkscape:window-maximized="0"
     inkscape:current-layer="svg7" />
  <defs
     id="defs3">
    <style
       id="current-color-scheme"
       type="text/css">
   .ColorScheme-Text { color:#444444; } .ColorScheme-Highlight { color:#5294e2; }
  </style>
  </defs>
  <circle
     style="fill:#435ece;fill-opacity:1;stroke-width:0.82868701"
     cx="8.0256262"
     cy="7.8194671"
     r="6.6294961"
     id="circle24" />
  <path
     inkscape:connector-curvature="0"
     style="fill:#ffffff;stroke-width:0.82868701"
     d="m 6.7966839,11.0298 c 0,-0.172011 0.024695,-0.317338 0.074085,-0.436379 0.049389,-0.118651 0.1178558,-0.214614 0.2058459,-0.28787 0.087592,-0.07325 0.1911118,-0.126216 0.3101609,-0.159264 0.1186515,-0.03265 0.2456643,-0.04939 0.3810386,-0.04939 0.1282062,0 0.250048,0.01674 0.3651196,0.04939 0.1150631,0.03307 0.2165939,0.086 0.3045838,0.159264 0.087601,0.07326 0.1568788,0.169219 0.2082409,0.28787 0.051379,0.119041 0.076819,0.264368 0.076819,0.436379 0,0.164833 -0.02544,0.305784 -0.076819,0.422845 -0.051379,0.116663 -0.1206404,0.214208 -0.2082409,0.291052 -0.087989,0.07649 -0.1895207,0.132191 -0.3045838,0.167228 -0.1150716,0.03464 -0.2369134,0.05213 -0.3651196,0.05213 -0.1353743,0 -0.2623871,-0.01748 -0.3810386,-0.05213 C 7.2677267,11.875865 7.1642071,11.820145 7.0766149,11.743697 6.9886259,11.666877 6.9201339,11.569308 6.870769,11.452645 6.821876,11.3358 6.797015,11.194923 6.797015,11.030014 M 6.9781828,9.1531222 V 8.7473974 c 0,-0.1867363 0.019143,-0.3559543 0.057676,-0.5076537 C 7.0740624,8.0876548 7.1326176,7.9435212 7.21145,7.8061498 7.2899266,7.6691844 7.391416,7.5354095 7.5156445,7.405604 7.6402624,7.2757984 7.7903707,7.1412196 7.9659613,7.0022654 8.1196496,6.8816252 8.2494551,6.7737218 8.3553613,6.6781659 8.4616652,6.5834053 8.5472687,6.4890347 8.613373,6.3954759 8.6790881,6.3023071 8.7268451,6.2047536 8.7559071,6.1024273 8.7854091,5.9997033 8.8001591,5.8806459 8.8001591,5.7456776 8.8001591,5.537039 8.7293061,5.3646389 8.5887279,5.2296625 8.4477765,5.0942881 8.2327737,5.026601 7.9437193,5.026601 7.6916741,5.026601 7.4197405,5.079555 7.1286807,5.1854686 6.8384248,5.2917725 6.5370148,5.4215698 6.2260749,5.5752664 L 5.6666697,4.3624829 C 5.8235485,4.2709048 5.9947553,4.184108 6.1794944,4.1020929 6.364648,4.0196386 6.5565552,3.9464075 6.7556391,3.8823086 c 0.1994732,-0.063726 0.4017392,-0.114276 0.6063916,-0.150904 0.2050587,-0.036628 0.4061229,-0.054942 0.6040135,-0.054942 0.3730748,0 0.7095218,0.044998 1.0093407,0.1345788 0.300216,0.089581 0.5546402,0.2201738 0.7628728,0.3921844 0.2090361,0.1720024 0.3687003,0.3810386 0.4801833,0.6259074 0.111881,0.2452665 0.167627,0.5247743 0.167627,0.8392941 0,0.2305325 -0.02593,0.4363866 -0.07682,0.617546 C 10.258278,6.4671408 10.181837,6.635555 10.081897,6.7908343 9.980765,6.9465194 9.8545478,7.0966194 9.7028481,7.2407613 9.5511485,7.3852926 9.3743643,7.5381854 9.1732917,7.6990418 9.0196033,7.8196821 8.8941902,7.9251905 8.7970349,8.0147798 8.7002774,8.1043692 8.6242288,8.1895747 8.5696846,8.2696011 8.5147424,8.3503982 8.4773188,8.433648 8.457008,8.5196491 8.4370367,8.6052521 8.4267605,8.7067832 8.4267605,8.8238435 V 9.1531222 H 6.9782161 Z"
     id="path26" />
  <path
     inkscape:connector-curvature="0"
     style="opacity:0.2;stroke-width:0.82868701"
     d="M 14.63772,8.1708302 A 6.6294961,6.6294961 0 0 1 8.0256267,14.448961 6.6294961,6.6294961 0 0 1 1.4135331,8.2967905 6.6294961,6.6294961 0 0 0 1.3961307,8.6481538 6.6294961,6.6294961 0 0 0 8.0256267,15.277649 6.6294961,6.6294961 0 0 0 14.655123,8.6481538 6.6294961,6.6294961 0 0 0 14.637323,8.1706892 Z"
     id="path28" />
</svg>
