<?xml version="1.0" encoding="UTF-8" standalone="no"?>
<svg
   xmlns:dc="http://purl.org/dc/elements/1.1/"
   xmlns:cc="http://creativecommons.org/ns#"
   xmlns:rdf="http://www.w3.org/1999/02/22-rdf-syntax-ns#"
   xmlns:svg="http://www.w3.org/2000/svg"
   xmlns="http://www.w3.org/2000/svg"
   xmlns:sodipodi="http://sodipodi.sourceforge.net/DTD/sodipodi-0.dtd"
   xmlns:inkscape="http://www.inkscape.org/namespaces/inkscape"
   width="32"
   height="32"
   version="1.1"
   viewBox="0 0 32 32"
   id="svg12"
   sodipodi:docname="password-generator.svg"
   inkscape:version="0.92.2 2405546, 2018-03-11">
  <metadata
     id="metadata18">
    <rdf:RDF>
      <cc:Work
         rdf:about="">
        <dc:format>image/svg+xml</dc:format>
        <dc:type
           rdf:resource="http://purl.org/dc/dcmitype/StillImage" />
      </cc:Work>
    </rdf:RDF>
  </metadata>
  <defs
     id="defs16" />
  <sodipodi:namedview
     pagecolor="#ffffff"
     bordercolor="#666666"
     borderopacity="1"
     objecttolerance="10"
     gridtolerance="10"
     guidetolerance="10"
     inkscape:pageopacity="0"
     inkscape:pageshadow="2"
     inkscape:window-width="1278"
     inkscape:window-height="1006"
     id="namedview14"
     showgrid="false"
     inkscape:zoom="14.75"
     inkscape:cx="15.736195"
     inkscape:cy="19.708981"
     inkscape:window-x="1049"
     inkscape:window-y="265"
     inkscape:window-maximized="0"
     inkscape:current-layer="svg12" />
  <path
     inkscape:connector-curvature="0"
     style="fill:#739daa;fill-opacity:1;stroke-width:1.50831199"
     class="ColorScheme-Text"
     d="M 16.494265,1.661637 16.261537,4.4425871 A 8.2957157,8.2957157 0 0 0 13.837043,5.8448457 L 11.309442,4.6546941 8.669896,9.2267647 10.964769,10.820507 a 8.2957157,8.2957157 0 0 0 -0.126668,1.399314 8.2957157,8.2957157 0 0 0 0.120785,1.405203 l -2.288981,1.587853 2.639546,4.572071 2.521709,-1.187206 a 8.2957157,8.2957157 0 0 0 2.430386,1.393421 l 0.226836,2.789787 h 5.279092 L 22.0002,20 a 8.2957157,8.2957157 0 0 0 2.424494,-1.402258 l 2.527602,1.190152 2.639546,-4.572071 -2.294874,-1.593744 a 8.2957157,8.2957157 0 0 0 0.126683,-1.399313 8.2957157,8.2957157 0 0 0 -0.120785,-1.405205 L 29.591847,9.2297104 26.952301,4.6576398 24.430592,5.8448457 A 8.2957157,8.2957157 0 0 0 22.000191,4.4514249 L 21.773356,1.661637 Z m 2.639545,7.5415603 a 3.0166239,3.0166239 0 0 1 3.016624,3.0166237 3.0166239,3.0166239 0 0 1 -3.016624,3.016624 3.0166239,3.0166239 0 0 1 -3.016623,-3.016624 3.0166239,3.0166239 0 0 1 3.016623,-3.0166237 z"
     id="path5" />
  <path
     d="m 9.767274,11.78095 a 8,8 0 0 0 -8,8 8,8 0 0 0 8,8 8,8 0 0 0 7.4102,-5 h 4.59 v 3 h 5 v -3 h 3 v -6 h -12.588 a 8,8 0 0 0 -7.4121,-5 z"
     id="path2"
     inkscape:connector-curvature="0"
     style="fill:#4bae4f" />
  <circle
     cx="9.7672739"
     cy="20.780951"
     r="3"
     id="circle4"
     style="opacity:0.2" />
  <circle
     cx="9.7672739"
     cy="19.780951"
     r="3"
     id="circle6"
     style="fill:#f9f9f9" />
  <path
     d="m 9.767274,11.78095 a 8,8 0 0 0 -8,8 8,8 0 0 0 0.0215,0.424 8,8 0 0 1 7.9785,-7.424 8,8 0 0 1 7.4121,5 h 12.588 v -1 h -12.588 a 8,8 0 0 0 -7.412,-5 z"
     id="path8"
     inkscape:connector-curvature="0"
     style="opacity:0.2;fill:#ffffff" />
  <path
     d="m 1.788774,20.20495 a 8,8 0 0 0 -0.0215,0.576 8,8 0 0 0 8,8 8,8 0 0 0 7.4102,-5 h 4.59 v -1 h -4.5898 a 8,8 0 0 1 -7.41,5 8,8 0 0 1 -7.9785,-7.576 z m 24.978,2.576 v 1 h 3 v -1 z m -5,3 v 1 h 5 v -1 z"
     id="path10"
     inkscape:connector-curvature="0"
     style="opacity:0.2" />
</svg>
