<svg height="32" viewBox="0 0 32 32" width="32" xmlns="http://www.w3.org/2000/svg"><path d="m16.494265 1.661637-.232728 2.7809501a8.2957157 8.2957157 0 0 0 -2.424494 1.4022586l-2.527601-1.1901516-2.639546 4.5720706 2.294873 1.5937423a8.2957157 8.2957157 0 0 0 -.126668 1.399314 8.2957157 8.2957157 0 0 0 .120785 1.405203l-2.288981 1.587853 2.639546 4.572071 2.521709-1.187206a8.2957157 8.2957157 0 0 0 2.430386 1.393421l.226836 2.789787h5.279092l.232726-2.78095a8.2957157 8.2957157 0 0 0 2.424494-1.402258l2.527602 1.190152 2.639546-4.572071-2.294874-1.593744a8.2957157 8.2957157 0 0 0 .126683-1.399313 8.2957157 8.2957157 0 0 0 -.120785-1.405205l2.288981-1.5878506-2.639546-4.5720706-2.521709 1.1872059a8.2957157 8.2957157 0 0 0 -2.430401-1.3934208l-.226835-2.7897879zm2.639545 7.5415603a3.0166239 3.0166239 0 0 1 3.016624 3.0166237 3.0166239 3.0166239 0 0 1 -3.016624 3.016624 3.0166239 3.0166239 0 0 1 -3.016623-3.016624 3.0166239 3.0166239 0 0 1 3.016623-3.0166237z" fill="#739daa" stroke-width="1.508312"/><path d="m9.767274 11.78095a8 8 0 0 0 -8 8 8 8 0 0 0 8 8 8 8 0 0 0 7.4102-5h4.59v3h5v-3h3v-6h-12.588a8 8 0 0 0 -7.4121-5z" fill="#5faf26"/><circle cx="9.767274" cy="20.780951" opacity=".2" r="3"/><circle cx="9.767274" cy="19.780951" fill="#f9f9f9" r="3"/><path d="m9.767274 11.78095a8 8 0 0 0 -8 8 8 8 0 0 0 .0215.424 8 8 0 0 1 7.9785-7.424 8 8 0 0 1 7.4121 5h12.588v-1h-12.588a8 8 0 0 0 -7.412-5z" fill="#fff" opacity=".2"/><path d="m1.788774 20.20495a8 8 0 0 0 -.0215.576 8 8 0 0 0 8 8 8 8 0 0 0 7.4102-5h4.59v-1h-4.5898a8 8 0 0 1 -7.41 5 8 8 0 0 1 -7.9785-7.576zm24.978 2.576v1h3v-1zm-5 3v1h5v-1z" opacity=".2"/></svg>