<svg height="32" width="32" xmlns="http://www.w3.org/2000/svg"><path d="m6.2820032 1.5206388c-.76911 0-1.3882853.6191752-1.3882853 1.3882853v1.1106282c0-.7691101.6191753-1.3882853 1.3882853-1.3882853h12.4945678v-1.1106282z" fill="#fff" opacity=".2" stroke-width="1.110628"/><g stroke-width=".936752"><path d="m10.247349 8.3134695a7.4940175 7.4940175 0 0 0 -7.4940173 7.4940185 7.4940175 7.4940175 0 0 0 7.4940173 7.494017 7.4940175 7.4940175 0 0 0 6.941521-4.683761h4.299693v2.810257h4.683761v-2.810257h2.810255v-5.620514h-11.791836a7.4940175 7.4940175 0 0 0 -6.9433-4.6837605z" fill="#5faf26"/><circle cx="10.247351" cy="16.74424" opacity=".2" r="2.810257"/><circle cx="10.247351" cy="15.807487" fill="#f9f9f9" r="2.810257"/><path d="m10.247349 8.3134695a7.4940175 7.4940175 0 0 0 -7.4940173 7.4940185 7.4940175 7.4940175 0 0 0 .020145.397181 7.4940175 7.4940175 0 0 1 7.4738783-6.9544475 7.4940175 7.4940175 0 0 1 6.9433 4.6837605h11.791835v-.936752h-11.791835a7.4940175 7.4940175 0 0 0 -6.943207-4.6837605z" fill="#fff" opacity=".2"/><path d="m2.7734731 16.204669a7.4940175 7.4940175 0 0 0 -.020145.539569 7.4940175 7.4940175 0 0 0 7.4940159 7.494019 7.4940175 7.4940175 0 0 0 6.941521-4.683761h4.299693v-.936752h-4.299506a7.4940175 7.4940175 0 0 1 -6.941333 4.683761 7.4940175 7.4940175 0 0 1 -7.4738758-7.096836zm23.3981949 2.413075v.936752h2.810256v-.936752zm-4.683761 2.810257v.936751h4.683761v-.936751z" opacity=".2"/></g></svg>