<svg height="16" width="16" xmlns="http://www.w3.org/2000/svg"><path d="m6.7469734 2.1525424a4.594431 4.594431 0 0 0 -4.594431 4.594431 4.594431 4.594431 0 0 0 4.594431 4.5944306 4.594431 4.594431 0 0 0 2.6039564-.809455l3.0588882 3.059056a.83535109.83535109 0 0 0 .602289.256453.83535109.83535109 0 0 0 .835351-.835351.83535109.83535109 0 0 0 -.253112-.598947l-3.065738-3.0654881a4.594431 4.594431 0 0 0 .812796-2.6006985 4.594431 4.594431 0 0 0 -4.5944306-4.594431zm0 1.6707022a2.9237288 2.9237288 0 0 1 2.9237288 2.9237288 2.9237288 2.9237288 0 0 1 -2.9237288 2.9237288 2.9237288 2.9237288 0 0 1 -2.9237288-2.9237288 2.9237288 2.9237288 0 0 1 2.9237288-2.9237288z" fill="#444" stroke-width=".835351"/></svg>