<svg height="32" width="32" xmlns="http://www.w3.org/2000/svg"><g stroke-width="1.814876"><path d="m15.932203 4.4404493c-7.0163124 0-12.7041346 5.6878227-12.7041346 12.7041357 0 7.016312 5.6878222 12.704135 12.7041346 12.704135 7.016312 0 12.704135-5.687823 12.704135-12.704135 0-7.016313-5.687823-12.7041357-12.704135-12.7041357zm-1.272541 2.4281071c.148113-.015431.336184.00886.485621 0 .01779.070858-.107549.322302-.276486.6912118-1.075664 2.3498908-1.136557 5.1044318-.138238 6.5753818.180653.266693.343833.519976.343833.55297 0 .03298-.194438.06735-.414728.06735-.517134 0-1.006402-.314164-2.006289-1.10594-.444186-.351733-1.020464-.646496-1.244183-.691214-.351311-.07018-.445868-.0398-.900348.414728-.422854.422777-.5529716.65155-.5529716 1.038592 0 1.46772 1.7414396 2.631273 4.9802776 3.317822 4.398461.932229 5.482816 1.770599 5.604139 4.083471.152322 2.900278-1.392648 5.087964-4.774685 6.780974-.403668.202139-.66009.278516-.829454.343834-.07504-.0067-.130762.0067-.205591 0-.02878-.08967-.07089-.297041-.07089-.691213 0-1.540425-.605751-3.12589-1.520667-4.012579-.245595-.238044-.935346-.741413-1.524213-1.10594-.588844-.364503-1.18268-.787042-1.315076-.967695-.219401-.299792-.235915-.484771-.06735-1.038592.307208-1.01149.67157-1.576323 1.382426-2.215426.372674-.335058.746896-.613604.829455-.620319.08258-.0067-.473327-.175916-1.311532-.347378-.838158-.171799-2.0671249-.532677-2.7010468-.762109-1.1591815-.419434-2.7211604-1.29813-3.3178222-1.935395-.025244-.02701-.048965-.04696-.07089-.07089.8548734-3.405282 3.2532508-6.194558 6.433595-7.539536.665448-.2814594 1.353044-.4757518 2.077183-.6238631.360698-.073723.73351-.1003798 1.10594-.1382392zm10.378825 5.1894116c.260029.160726 1.240403 2.285237 1.520669 3.321365.361848 1.33765.335656 3.65146 0 4.980276-.127749.505756-.28937.979699-.343834 1.038592-.05447.05889-.25329-.279484-.485621-.691212-.232357-.411663-.974779-1.288151-1.591563-1.938941-1.780329-1.878606-2.060825-2.857122-1.315076-4.356412.376084-.756041 2.014177-2.477878 2.215425-2.353668z" opacity=".2"/><path d="m15.932203 2.6255728c-7.0163124 0-12.7041346 5.6878224-12.7041346 12.7041342 0 7.016313 5.6878222 12.704136 12.7041346 12.704136 7.016312 0 12.704135-5.687823 12.704135-12.704136 0-7.0163118-5.687823-12.7041342-12.704135-12.7041342zm-1.272541 2.4281069c.148113-.015426.336184.0089.485621 0 .01779.070852-.107549.3223021-.276486.6912121-1.075664 2.3498912-1.136557 5.1044322-.138238 6.5753822.180653.266693.343833.519975.343833.552969 0 .03298-.194438.06735-.414728.06735-.517134 0-1.006402-.314164-2.006289-1.10594-.444186-.351732-1.020464-.646495-1.244183-.691214-.351311-.07018-.445868-.0398-.900348.414729-.422854.422777-.5529716.651549-.5529716 1.038592 0 1.467719 1.7414396 2.631273 4.9802776 3.317821 4.398461.932229 5.482816 1.770598 5.604139 4.083472.152322 2.900277-1.392648 5.087964-4.774685 6.780973-.403668.202139-.66009.278517-.829454.343834-.07504-.0067-.130762.0067-.205591 0-.02878-.08967-.07089-.29704-.07089-.691212 0-1.540425-.605751-3.125891-1.520667-4.012579-.245595-.238045-.935346-.741413-1.524213-1.10594-.588844-.364502-1.18268-.787042-1.315076-.967694-.219401-.299793-.235915-.484771-.06735-1.038593.307208-1.011489.67157-1.576322 1.382426-2.215425.372674-.335059.746896-.613605.829455-.620319.08258-.0067-.473327-.175917-1.311532-.347379-.83816-.171796-2.067127-.532675-2.7010488-.762106-1.1591816-.419435-2.7211605-1.298131-3.3178223-1.935395-.025244-.02701-.048965-.04697-.070889-.07089.8548733-3.405281 3.2532507-6.1945578 6.4335941-7.539535.665448-.2814601 1.353045-.4757517 2.077183-.6238638.360698-.07372.733511-.1003809 1.105941-.1382391zm10.378825 5.1894123c.260029.160725 1.240403 2.285236 1.520669 3.321365.361848 1.33765.335656 3.651459 0 4.980276-.127749.505754-.28937.979699-.343834 1.038591-.05447.05889-.25329-.279483-.485621-.691212-.232357-.411662-.974779-1.28815-1.591563-1.938941-1.780329-1.878606-2.060825-2.857122-1.315076-4.356411.376084-.756042 2.014177-2.477878 2.215425-2.353668z" fill="#5294e2"/></g></svg>