<?xml version="1.0" encoding="UTF-8" standalone="no"?>
<svg
   xmlns:dc="http://purl.org/dc/elements/1.1/"
   xmlns:cc="http://creativecommons.org/ns#"
   xmlns:rdf="http://www.w3.org/1999/02/22-rdf-syntax-ns#"
   xmlns:svg="http://www.w3.org/2000/svg"
   xmlns="http://www.w3.org/2000/svg"
   xmlns:sodipodi="http://sodipodi.sourceforge.net/DTD/sodipodi-0.dtd"
   xmlns:inkscape="http://www.inkscape.org/namespaces/inkscape"
   width="32"
   height="32"
   version="1"
   id="svg14"
   sodipodi:docname="url-copy.svg"
   inkscape:version="0.92.2 2405546, 2018-03-11">
  <metadata
     id="metadata20">
    <rdf:RDF>
      <cc:Work
         rdf:about="">
        <dc:format>image/svg+xml</dc:format>
        <dc:type
           rdf:resource="http://purl.org/dc/dcmitype/StillImage" />
      </cc:Work>
    </rdf:RDF>
  </metadata>
  <defs
     id="defs18" />
  <sodipodi:namedview
     pagecolor="#ffffff"
     bordercolor="#666666"
     borderopacity="1"
     objecttolerance="10"
     gridtolerance="10"
     guidetolerance="10"
     inkscape:pageopacity="0"
     inkscape:pageshadow="2"
     inkscape:window-width="2270"
     inkscape:window-height="1271"
     id="namedview16"
     showgrid="false"
     inkscape:zoom="14.75"
     inkscape:cx="0.96937647"
     inkscape:cy="15.908286"
     inkscape:window-x="0"
     inkscape:window-y="32"
     inkscape:window-maximized="0"
     inkscape:current-layer="svg14" />
  <path
     inkscape:connector-curvature="0"
     style="opacity:0.2;stroke-width:1.81487644"
     d="m 15.932203,4.4404493 c -7.0163124,0 -12.7041346,5.6878227 -12.7041346,12.7041357 0,7.016312 5.6878222,12.704135 12.7041346,12.704135 7.016312,0 12.704135,-5.687823 12.704135,-12.704135 0,-7.016313 -5.687823,-12.7041357 -12.704135,-12.7041357 z m -1.272541,2.4281071 c 0.148113,-0.015431 0.336184,0.00886 0.485621,0 0.01779,0.070858 -0.107549,0.322302 -0.276486,0.6912118 C 13.793133,9.909659 13.73224,12.6642 14.730559,14.13515 c 0.180653,0.266693 0.343833,0.519976 0.343833,0.55297 0,0.03298 -0.194438,0.06735 -0.414728,0.06735 -0.517134,0 -1.006402,-0.314164 -2.006289,-1.10594 -0.444186,-0.351733 -1.020464,-0.646496 -1.244183,-0.691214 -0.351311,-0.07018 -0.445868,-0.0398 -0.900348,0.414728 -0.422854,0.422777 -0.5529716,0.65155 -0.5529716,1.038592 0,1.46772 1.7414396,2.631273 4.9802776,3.317822 4.398461,0.932229 5.482816,1.770599 5.604139,4.083471 0.152322,2.900278 -1.392648,5.087964 -4.774685,6.780974 -0.403668,0.202139 -0.66009,0.278516 -0.829454,0.343834 -0.07504,-0.0067 -0.130762,0.0067 -0.205591,0 -0.02878,-0.08967 -0.07089,-0.297041 -0.07089,-0.691213 0,-1.540425 -0.605751,-3.12589 -1.520667,-4.012579 -0.245595,-0.238044 -0.935346,-0.741413 -1.524213,-1.10594 -0.588844,-0.364503 -1.18268,-0.787042 -1.315076,-0.967695 -0.219401,-0.299792 -0.235915,-0.484771 -0.06735,-1.038592 0.307208,-1.01149 0.67157,-1.576323 1.382426,-2.215426 0.372674,-0.335058 0.746896,-0.613604 0.829455,-0.620319 0.08258,-0.0067 -0.473327,-0.175916 -1.311532,-0.347378 C 10.294554,17.766796 9.0655871,17.405918 8.4316652,17.176486 7.2724837,16.757052 5.7105048,15.878356 5.113843,15.241091 c -0.025244,-0.02701 -0.048965,-0.04696 -0.07089,-0.07089 0.8548734,-3.405282 3.2532508,-6.194558 6.433595,-7.539536 0.665448,-0.2814594 1.353044,-0.4757518 2.077183,-0.6238631 0.360698,-0.073723 0.73351,-0.1003798 1.10594,-0.1382392 z m 10.378825,5.1894116 c 0.260029,0.160726 1.240403,2.285237 1.520669,3.321365 0.361848,1.33765 0.335656,3.65146 0,4.980276 -0.127749,0.505756 -0.28937,0.979699 -0.343834,1.038592 -0.05447,0.05889 -0.25329,-0.279484 -0.485621,-0.691212 -0.232357,-0.411663 -0.974779,-1.288151 -1.591563,-1.938941 -1.780329,-1.878606 -2.060825,-2.857122 -1.315076,-4.356412 0.376084,-0.756041 2.014177,-2.477878 2.215425,-2.353668 z"
     id="path12-3" />
  <path
     inkscape:connector-curvature="0"
     style="fill:#2095f2;fill-opacity:1;stroke-width:1.81487644"
     d="m 15.932203,2.6255728 c -7.0163124,0 -12.7041346,5.6878224 -12.7041346,12.7041342 0,7.016313 5.6878222,12.704136 12.7041346,12.704136 7.016312,0 12.704135,-5.687823 12.704135,-12.704136 0,-7.0163118 -5.687823,-12.7041342 -12.704135,-12.7041342 z m -1.272541,2.4281069 c 0.148113,-0.015426 0.336184,0.0089 0.485621,0 0.01779,0.070852 -0.107549,0.3223021 -0.276486,0.6912121 -1.075664,2.3498912 -1.136557,5.1044322 -0.138238,6.5753822 0.180653,0.266693 0.343833,0.519975 0.343833,0.552969 0,0.03298 -0.194438,0.06735 -0.414728,0.06735 -0.517134,0 -1.006402,-0.314164 -2.006289,-1.10594 -0.444186,-0.351732 -1.020464,-0.646495 -1.244183,-0.691214 -0.351311,-0.07018 -0.445868,-0.0398 -0.900348,0.414729 -0.422854,0.422777 -0.5529716,0.651549 -0.5529716,1.038592 0,1.467719 1.7414396,2.631273 4.9802776,3.317821 4.398461,0.932229 5.482816,1.770598 5.604139,4.083472 0.152322,2.900277 -1.392648,5.087964 -4.774685,6.780973 -0.403668,0.202139 -0.66009,0.278517 -0.829454,0.343834 -0.07504,-0.0067 -0.130762,0.0067 -0.205591,0 -0.02878,-0.08967 -0.07089,-0.29704 -0.07089,-0.691212 0,-1.540425 -0.605751,-3.125891 -1.520667,-4.012579 -0.245595,-0.238045 -0.935346,-0.741413 -1.524213,-1.10594 -0.588844,-0.364502 -1.18268,-0.787042 -1.315076,-0.967694 -0.219401,-0.299793 -0.235915,-0.484771 -0.06735,-1.038593 0.307208,-1.011489 0.67157,-1.576322 1.382426,-2.215425 0.372674,-0.335059 0.746896,-0.613605 0.829455,-0.620319 0.08258,-0.0067 -0.473327,-0.175917 -1.311532,-0.347379 C 10.294552,15.951923 9.065585,15.591044 8.4316632,15.361613 7.2724816,14.942178 5.7105027,14.063482 5.1138409,13.426218 5.0885969,13.399208 5.0648759,13.379248 5.0429519,13.355328 5.8978252,9.950047 8.2962026,7.1607702 11.476546,5.815793 12.141994,5.5343329 12.829591,5.3400413 13.553729,5.1919292 13.914427,5.1182092 14.28724,5.0915483 14.65967,5.0536901 Z m 10.378825,5.1894123 c 0.260029,0.160725 1.240403,2.285236 1.520669,3.321365 0.361848,1.33765 0.335656,3.651459 0,4.980276 -0.127749,0.505754 -0.28937,0.979699 -0.343834,1.038591 -0.05447,0.05889 -0.25329,-0.279483 -0.485621,-0.691212 -0.232357,-0.411662 -0.974779,-1.28815 -1.591563,-1.938941 -1.780329,-1.878606 -2.060825,-2.857122 -1.315076,-4.356411 0.376084,-0.756042 2.014177,-2.477878 2.215425,-2.353668 z"
     id="path14" />
</svg>
