<svg height="32" width="32" xmlns="http://www.w3.org/2000/svg"><path d="m6.2820032 1.5206388c-.76911 0-1.3882853.6191752-1.3882853 1.3882853v1.1106282c0-.7691101.6191753-1.3882853 1.3882853-1.3882853h12.4945678v-1.1106282z" fill="#fff" opacity=".2" stroke-width="1.110628"/><g opacity=".2" transform="matrix(1.3492731 0 0 1.3492731 -5.63383 -4.336366)"><path d="m16 6c-2.2096 0-4 1.7912-4 4s1.7904 4 4 4 4-1.7912 4-4-1.7904-4-4-4z"/><path d="m16 16.000001c-6.9993.0042-7 4.430769-7 4.430769v1.8s1.292299 2.76923 7 2.76923 7-2.76923 7-2.76923v-1.8s0-4.433538-6.9986-4.430769z"/></g><g fill="#5294e2" transform="matrix(1.3492731 0 0 1.3492731 -5.63383 -5.685639)"><path d="m16 6c-2.2096 0-4 1.7912-4 4s1.7904 4 4 4 4-1.7912 4-4-1.7904-4-4-4z"/><path d="m16 16.000001c-6.9993.0042-7 4.430769-7 4.430769v1.8s1.292299 2.76923 7 2.76923 7-2.76923 7-2.76923v-1.8s0-4.433538-6.9986-4.430769z"/></g></svg>